<svg width="404" height="256" viewBox="0 0 404 256" fill="none" xmlns="http://www.w3.org/2000/svg"><path d="M144 16L16 128L144 240" stroke="#FFC107" stroke-width="32" stroke-linecap="round" stroke-linejoin="round"/><path d="M254.9 206.985C253.653 206.989 252.447 206.488 251.512 205.575L209 163.754L166.488 205.575C165.753 206.298 164.843 206.771 163.87 206.935C162.897 207.1 161.902 206.949 161.005 206.502C160.107 206.054 159.346 205.329 158.813 204.414C158.28 203.498 157.997 202.432 158 201.343V71.5693C158.006 65.5856 160.157 59.8488 163.982 55.6176C167.806 51.3865 172.991 49.0065 178.4 49H239.6C245.009 49.0065 250.194 51.3865 254.018 55.6176C257.843 59.8488 259.994 65.5856 260 71.5693V201.343C260 202.839 259.463 204.275 258.506 205.333C257.55 206.391 256.253 206.985 254.9 206.985Z" fill="#FFC107"/><path d="M260 240L388 128L260 16" stroke="#FFC107" stroke-width="32" stroke-linecap="round" stroke-linejoin="round"/></svg>
